<svg version="1.1" viewBox="0.0 0.0 800.0 600.0" fill="none" stroke="none" stroke-linecap="square" stroke-miterlimit="10" xmlns:xlink="http://www.w3.org/1999/xlink" xmlns="http://www.w3.org/2000/svg"><clipPath id="p.0"><path d="m0 0l800.0 0l0 600.0l-800.0 0l0 -600.0z" clip-rule="nonzero"/></clipPath><g clip-path="url(#p.0)"><path fill="#000000" fill-opacity="0.0" d="m0 0l800.0 0l0 600.0l-800.0 0z" fill-rule="evenodd"/><path fill="#cccccc" d="m374.44696 196.17905l-32.088104 -11.700363l-69.4552 50.723984l32.088074 11.700363z" fill-rule="evenodd"/><path stroke="#000000" stroke-width="1.0" stroke-linejoin="round" stroke-linecap="butt" d="m374.44696 196.17905l-32.088104 -11.700363l-69.4552 50.723984l32.088074 11.700363z" fill-rule="evenodd"/><path fill="#cccccc" d="m374.44696 180.17905l-32.088104 -11.700363l-69.4552 50.723984l32.088074 11.700363z" fill-rule="evenodd"/><path stroke="#000000" stroke-width="1.0" stroke-linejoin="round" stroke-linecap="butt" d="m374.44696 180.17905l-32.088104 -11.700363l-69.4552 50.723984l32.088074 11.700363z" fill-rule="evenodd"/><path fill="#cccccc" d="m374.44696 164.17905l-32.088104 -11.700363l-69.4552 50.723984l32.088074 11.700363z" fill-rule="evenodd"/><path stroke="#000000" stroke-width="1.0" stroke-linejoin="round" stroke-linecap="butt" d="m374.44696 164.17905l-32.088104 -11.700363l-69.4552 50.723984l32.088074 11.700363z" fill-rule="evenodd"/><path fill="#cccccc" d="m374.44696 148.17905l-32.088104 -11.700363l-69.4552 50.723984l32.088074 11.700363z" fill-rule="evenodd"/><path stroke="#000000" stroke-width="1.0" stroke-linejoin="round" stroke-linecap="butt" d="m374.44696 148.17905l-32.088104 -11.700363l-69.4552 50.723984l32.088074 11.700363z" fill-rule="evenodd"/><path fill="#cccccc" d="m374.44696 132.17905l-32.088104 -11.700363l-69.4552 50.723984l32.088074 11.700363z" fill-rule="evenodd"/><path stroke="#000000" stroke-width="1.0" stroke-linejoin="round" stroke-linecap="butt" d="m374.44696 132.17905l-32.088104 -11.700363l-69.4552 50.723984l32.088074 11.700363z" fill-rule="evenodd"/><path fill="#666666" d="m381.24146 275.80054l0 0c0 9.954163 37.248505 18.02362 83.19687 18.02362c45.948334 0 83.19687 -8.069458 83.19687 -18.02362l0 36.04724c0 9.954163 -37.248535 18.02362 -83.19687 18.02362c-45.948364 0 -83.19687 -8.069458 -83.19687 -18.02362z" fill-rule="evenodd"/><path fill="#a3a3a3" d="m381.24146 275.80054l0 0c0 -9.954193 37.248505 -18.02362 83.19687 -18.02362c45.948334 0 83.19687 8.0694275 83.19687 18.02362l0 0c0 9.954163 -37.248535 18.02362 -83.19687 18.02362c-45.948364 0 -83.19687 -8.069458 -83.19687 -18.02362z" fill-rule="evenodd"/><path fill="#000000" fill-opacity="0.0" d="m547.6352 275.80054l0 0c0 9.954163 -37.248535 18.02362 -83.19687 18.02362c-45.948364 0 -83.19687 -8.069458 -83.19687 -18.02362l0 0c0 -9.954193 37.248505 -18.02362 83.19687 -18.02362c45.948334 0 83.19687 8.0694275 83.19687 18.02362l0 36.04724c0 9.954163 -37.248535 18.02362 -83.19687 18.02362c-45.948364 0 -83.19687 -8.069458 -83.19687 -18.02362l0 -36.04724" fill-rule="evenodd"/><path stroke="#000000" stroke-width="1.0" stroke-linejoin="round" stroke-linecap="butt" d="m547.6352 275.80054l0 0c0 9.954163 -37.248535 18.02362 -83.19687 18.02362c-45.948364 0 -83.19687 -8.069458 -83.19687 -18.02362l0 0c0 -9.954193 37.248505 -18.02362 83.19687 -18.02362c45.948334 0 83.19687 8.0694275 83.19687 18.02362l0 36.04724c0 9.954163 -37.248535 18.02362 -83.19687 18.02362c-45.948364 0 -83.19687 -8.069458 -83.19687 -18.02362l0 -36.04724" fill-rule="evenodd"/><path fill="#b45f06" d="m406.80054 175.98013l0 0c0 8.809631 25.805298 15.951263 57.637787 15.951263c31.832458 0 57.637787 -7.141632 57.637787 -15.951263l0 101.89276c0 8.809631 -25.805328 15.951263 -57.637787 15.951263c-31.832489 0 -57.637787 -7.141632 -57.637787 -15.951263z" fill-rule="evenodd"/><path fill="#d29f69" d="m406.80054 175.98013l0 0c0 -8.809647 25.805298 -15.951263 57.637787 -15.951263c31.832458 0 57.637787 7.141617 57.637787 15.951263l0 0c0 8.809631 -25.805328 15.951263 -57.637787 15.951263c-31.832489 0 -57.637787 -7.141632 -57.637787 -15.951263z" fill-rule="evenodd"/><path fill="#000000" fill-opacity="0.0" d="m522.0761 175.98013l0 0c0 8.809631 -25.805328 15.951263 -57.637787 15.951263c-31.832489 0 -57.637787 -7.141632 -57.637787 -15.951263l0 0c0 -8.809647 25.805298 -15.951263 57.637787 -15.951263c31.832458 0 57.637787 7.141617 57.637787 15.951263l0 101.89276c0 8.809631 -25.805328 15.951263 -57.637787 15.951263c-31.832489 0 -57.637787 -7.141632 -57.637787 -15.951263l0 -101.89276" fill-rule="evenodd"/><path stroke="#000000" stroke-width="1.0" stroke-linejoin="round" stroke-linecap="butt" d="m522.0761 175.98013l0 0c0 8.809631 -25.805328 15.951263 -57.637787 15.951263c-31.832489 0 -57.637787 -7.141632 -57.637787 -15.951263l0 0c0 -8.809647 25.805298 -15.951263 57.637787 -15.951263c31.832458 0 57.637787 7.141617 57.637787 15.951263l0 101.89276c0 8.809631 -25.805328 15.951263 -57.637787 15.951263c-31.832489 0 -57.637787 -7.141632 -57.637787 -15.951263l0 -101.89276" fill-rule="evenodd"/><path fill="#6aa84f" d="m457.4134 185.77953c-12.401581 -31.223099 12.401581 -62.44619 0 -93.66929l22.322815 0c12.401581 31.223099 -12.40155 62.44619 0 93.66929z" fill-rule="evenodd"/><path stroke="#000000" stroke-width="1.0" stroke-linejoin="round" stroke-linecap="butt" d="m457.4134 185.77953c-12.401581 -31.223099 12.401581 -62.44619 0 -93.66929l22.322815 0c12.401581 31.223099 -12.40155 62.44619 0 93.66929z" fill-rule="evenodd"/><path fill="#93c47d" d="m410.65872 79.1563l14.863892 -7.371887l5.6779175 -11.927326l18.37323 -3.3569336E-4l14.864563 -7.371189l14.864563 7.371189l18.3732 3.3569336E-4l5.677948 11.927326l14.863922 7.371887l-5.677368 11.927689l5.677368 11.927681l-14.863922 7.371895l-5.677948 11.927322l-18.3732 3.3569336E-4l-14.864563 7.371193l-14.864563 -7.371193l-18.37323 -3.3569336E-4l-5.6779175 -11.927322l-14.863892 -7.371895l5.677307 -11.927681z" fill-rule="evenodd"/><path stroke="#000000" stroke-width="1.0" stroke-linejoin="round" stroke-linecap="butt" d="m410.65872 79.1563l14.863892 -7.371887l5.6779175 -11.927326l18.37323 -3.3569336E-4l14.864563 -7.371189l14.864563 7.371189l18.3732 3.3569336E-4l5.677948 11.927326l14.863922 7.371887l-5.677368 11.927689l5.677368 11.927681l-14.863922 7.371895l-5.677948 11.927322l-18.3732 3.3569336E-4l-14.864563 7.371193l-14.864563 -7.371193l-18.37323 -3.3569336E-4l-5.6779175 -11.927322l-14.863892 -7.371895l5.677307 -11.927681z" fill-rule="evenodd"/><path fill="#f6b26b" d="m246.80052 66.75328l-28.489395 8.935974l0 -17.871944zm-20.682724 -44.03135l-12.977295 24.088934l-14.327927 -12.637203zm-49.915695 -18.23637l10.1315 25.127613l-20.263 0zm-49.92224 18.23637l27.311752 11.451731l-14.327911 12.637203zm-20.676186 44.03135l28.489403 -8.93597l0 17.871944zm20.676186 44.02558l12.983841 -24.083168l14.327911 12.637207zm49.92224 18.242134l-10.1315 -25.12761l20.263 0zm49.915695 -18.242134l-27.305222 -11.445961l14.327927 -12.637207zm-85.214905 -44.02558c0 -17.194756 15.803986 -31.133858 35.29921 -31.133858c19.495209 0 35.29921 13.939102 35.29921 31.133858c0 17.194756 -15.804001 31.133858 -35.29921 31.133858c-19.495224 0 -35.29921 -13.939102 -35.29921 -31.133858z" fill-rule="evenodd"/><path stroke="#000000" stroke-width="1.0" stroke-linejoin="round" stroke-linecap="butt" d="m246.80052 66.75328l-28.489395 8.935974l0 -17.871944zm-20.682724 -44.03135l-12.977295 24.088934l-14.327927 -12.637203zm-49.915695 -18.23637l10.1315 25.127613l-20.263 0zm-49.92224 18.23637l27.311752 11.451731l-14.327911 12.637203zm-20.676186 44.03135l28.489403 -8.93597l0 17.871944zm20.676186 44.02558l12.983841 -24.083168l14.327911 12.637207zm49.92224 18.242134l-10.1315 -25.12761l20.263 0zm49.915695 -18.242134l-27.305222 -11.445961l14.327927 -12.637207zm-85.214905 -44.02558c0 -17.194756 15.803986 -31.133858 35.29921 -31.133858c19.495209 0 35.29921 13.939102 35.29921 31.133858c0 17.194756 -15.804001 31.133858 -35.29921 31.133858c-19.495224 0 -35.29921 -13.939102 -35.29921 -31.133858z" fill-rule="evenodd"/><path fill="#cccccc" d="m374.44696 116.17905l-32.088104 -11.700363l-69.4552 50.723984l32.088074 11.700363z" fill-rule="evenodd"/><path stroke="#000000" stroke-width="1.0" stroke-linejoin="round" stroke-linecap="butt" d="m374.44696 116.17905l-32.088104 -11.700363l-69.4552 50.723984l32.088074 11.700363z" fill-rule="evenodd"/><path fill="#cccccc" d="m374.44696 100.17905l-32.088104 -11.700363l-69.4552 50.723984l32.088074 11.700363z" fill-rule="evenodd"/><path stroke="#000000" stroke-width="1.0" stroke-linejoin="round" stroke-linecap="butt" d="m374.44696 100.17905l-32.088104 -11.700363l-69.4552 50.723984l32.088074 11.700363z" fill-rule="evenodd"/><path fill="#cccccc" d="m374.44696 84.17905l-32.088104 -11.700363l-69.4552 50.723984l32.088074 11.700363z" fill-rule="evenodd"/><path stroke="#000000" stroke-width="1.0" stroke-linejoin="round" stroke-linecap="butt" d="m374.44696 84.17905l-32.088104 -11.700363l-69.4552 50.723984l32.088074 11.700363z" fill-rule="evenodd"/><path fill="#cccccc" d="m374.44696 68.17905l-32.088104 -11.700367l-69.4552 50.723988l32.088074 11.700371z" fill-rule="evenodd"/><path stroke="#000000" stroke-width="1.0" stroke-linejoin="round" stroke-linecap="butt" d="m374.44696 68.17905l-32.088104 -11.700367l-69.4552 50.723988l32.088074 11.700371z" fill-rule="evenodd"/><path fill="#cccccc" d="m374.44696 52.179047l-32.088104 -11.700367l-69.4552 50.723988l32.088074 11.700371z" fill-rule="evenodd"/><path stroke="#000000" stroke-width="1.0" stroke-linejoin="round" stroke-linecap="butt" d="m374.44696 52.179047l-32.088104 -11.700367l-69.4552 50.723988l32.088074 11.700371z" fill-rule="evenodd"/><path fill="#c27ba0" d="m428.17706 83.50442l10.089172 -5.004822l3.854004 -8.097542l12.471191 -2.2888184E-4l10.08963 -5.0043488l10.0896 5.0043488l12.471191 2.2888184E-4l3.8540344 8.097542l10.089142 5.004822l-3.8535767 8.097786l3.8535767 8.097786l-10.089142 5.004822l-3.8540344 8.097534l-12.471191 2.2888184E-4l-10.0896 5.0043564l-10.08963 -5.0043564l-12.471191 -2.2888184E-4l-3.854004 -8.097534l-10.089172 -5.004822l3.8535767 -8.097786z" fill-rule="evenodd"/><path stroke="#000000" stroke-width="1.0" stroke-linejoin="round" stroke-linecap="butt" d="m428.17706 83.50442l10.089172 -5.004822l3.854004 -8.097542l12.471191 -2.2888184E-4l10.08963 -5.0043488l10.0896 5.0043488l12.471191 2.2888184E-4l3.8540344 8.097542l10.089142 5.004822l-3.8535767 8.097786l3.8535767 8.097786l-10.089142 5.004822l-3.8540344 8.097534l-12.471191 2.2888184E-4l-10.0896 5.0043564l-10.08963 -5.0043564l-12.471191 -2.2888184E-4l-3.854004 -8.097534l-10.089172 -5.004822l3.8535767 -8.097786z" fill-rule="evenodd"/><path fill="#434343" d="m562.45667 160.59842l26.204773 -26.204712l0 13.102356l131.33856 0l0 26.204727l-131.33856 0l0 13.102356z" fill-rule="evenodd"/><path stroke="#000000" stroke-width="1.0" stroke-linejoin="round" stroke-linecap="butt" d="m562.45667 160.59842l26.204773 -26.204712l0 13.102356l131.33856 0l0 26.204727l-131.33856 0l0 13.102356z" fill-rule="evenodd"/><path fill="#efefef" d="m605.3928 166.45842l0 -11.453125l2.3125 0l0 4.5l4.53125 0l0 -4.5l2.3125 0l0 11.453125l-2.3125 0l0 -5.015625l-4.53125 0l0 5.015625l-2.3125 0zm11.0234375 -4.265625q0 -1.09375 0.53125 -2.109375q0.546875 -1.03125 1.53125 -1.5625q1.0 -0.546875 2.21875 -0.546875q1.875 0 3.078125 1.21875q1.203125 1.21875 1.203125 3.09375q0 1.875 -1.21875 3.125q-1.203125 1.234375 -3.046875 1.234375q-1.140625 0 -2.1875 -0.515625q-1.03125 -0.515625 -1.578125 -1.515625q-0.53125 -1.0 -0.53125 -2.421875zm2.25 0.109375q0 1.234375 0.578125 1.890625q0.59375 0.65625 1.453125 0.65625q0.859375 0 1.4375 -0.65625q0.59375 -0.65625 0.59375 -1.90625q0 -1.21875 -0.59375 -1.875q-0.578125 -0.65625 -1.4375 -0.65625q-0.859375 0 -1.453125 0.65625q-0.578125 0.65625 -0.578125 1.890625zm13.4921875 4.15625l0 -1.25q-0.453125 0.671875 -1.1875 1.0625q-0.734375 0.375 -1.5625 0.375q-0.828125 0 -1.5 -0.359375q-0.65625 -0.375 -0.953125 -1.03125q-0.296875 -0.671875 -0.296875 -1.84375l0 -5.25l2.1875 0l0 3.8125q0 1.75 0.125 2.140625q0.125 0.390625 0.4375 0.625q0.328125 0.234375 0.8125 0.234375q0.5625 0 1.0 -0.3125q0.453125 -0.3125 0.609375 -0.765625q0.171875 -0.453125 0.171875 -2.234375l0 -3.5l2.203125 0l0 8.296875l-2.046875 0zm3.5390625 -2.375l2.203125 -0.328125q0.140625 0.640625 0.5625 0.96875q0.4375 0.328125 1.21875 0.328125q0.84375 0 1.28125 -0.3125q0.28125 -0.21875 0.28125 -0.578125q0 -0.25 -0.15625 -0.421875q-0.15625 -0.15625 -0.734375 -0.28125q-2.65625 -0.59375 -3.359375 -1.078125q-0.984375 -0.671875 -0.984375 -1.859375q0 -1.078125 0.84375 -1.8125q0.859375 -0.734375 2.640625 -0.734375q1.703125 0 2.53125 0.5625q0.828125 0.546875 1.140625 1.625l-2.0625 0.390625q-0.140625 -0.484375 -0.515625 -0.734375q-0.359375 -0.265625 -1.046875 -0.265625q-0.875 0 -1.25 0.234375q-0.25 0.171875 -0.25 0.453125q0 0.234375 0.21875 0.390625q0.296875 0.21875 2.046875 0.625q1.765625 0.390625 2.453125 0.96875q0.6875 0.59375 0.6875 1.640625q0 1.140625 -0.953125 1.96875q-0.953125 0.8125 -2.8125 0.8125q-1.703125 0 -2.6875 -0.6875q-0.984375 -0.6875 -1.296875 -1.875zm14.4765625 -0.265625l2.1875 0.359375q-0.421875 1.203125 -1.328125 1.84375q-0.90625 0.625 -2.28125 0.625q-2.15625 0 -3.203125 -1.421875q-0.8125 -1.125 -0.8125 -2.859375q0 -2.0625 1.078125 -3.21875q1.078125 -1.171875 2.71875 -1.171875q1.859375 0 2.921875 1.21875q1.078125 1.21875 1.03125 3.75l-5.5 0q0.015625 0.96875 0.515625 1.515625q0.515625 0.546875 1.28125 0.546875q0.515625 0 0.859375 -0.28125q0.359375 -0.28125 0.53125 -0.90625zm0.125 -2.21875q-0.015625 -0.953125 -0.484375 -1.453125q-0.46875 -0.5 -1.140625 -0.5q-0.71875 0 -1.1875 0.53125q-0.46875 0.515625 -0.46875 1.421875l3.28125 0zm3.9140625 -3.4375l2.046875 0l0 1.21875q0.390625 -0.625 1.0625 -1.015625q0.6875 -0.390625 1.515625 -0.390625q1.453125 0 2.453125 1.140625q1.015625 1.125 1.015625 3.140625q0 2.078125 -1.015625 3.234375q-1.015625 1.15625 -2.46875 1.15625q-0.6875 0 -1.25 -0.265625q-0.546875 -0.28125 -1.171875 -0.953125l0 4.1875l-2.1875 0l0 -11.453125zm2.171875 4.0q0 1.40625 0.546875 2.078125q0.5625 0.65625 1.359375 0.65625q0.765625 0 1.265625 -0.609375q0.515625 -0.609375 0.515625 -2.015625q0 -1.296875 -0.53125 -1.921875q-0.515625 -0.640625 -1.296875 -0.640625q-0.796875 0 -1.328125 0.625q-0.53125 0.609375 -0.53125 1.828125zm7.6640625 4.296875l0 -11.453125l2.1875 0l0 11.453125l-2.1875 0zm6.0859375 -5.765625l-2.0 -0.359375q0.34375 -1.203125 1.15625 -1.78125q0.828125 -0.578125 2.4375 -0.578125q1.46875 0 2.1875 0.34375q0.71875 0.34375 1.015625 0.890625q0.296875 0.53125 0.296875 1.953125l-0.03125 2.5625q0 1.09375 0.109375 1.625q0.109375 0.515625 0.390625 1.109375l-2.171875 0q-0.078125 -0.21875 -0.203125 -0.65625q-0.0625 -0.1875 -0.078125 -0.25q-0.5625 0.546875 -1.203125 0.828125q-0.640625 0.265625 -1.375 0.265625q-1.28125 0 -2.015625 -0.6875q-0.734375 -0.703125 -0.734375 -1.765625q0 -0.703125 0.328125 -1.25q0.34375 -0.5625 0.9375 -0.84375q0.609375 -0.296875 1.75 -0.515625q1.546875 -0.296875 2.140625 -0.546875l0 -0.21875q0 -0.625 -0.3125 -0.890625q-0.3125 -0.28125 -1.1875 -0.28125q-0.578125 0 -0.90625 0.234375q-0.328125 0.234375 -0.53125 0.8125zm2.9375 1.78125q-0.421875 0.140625 -1.34375 0.34375q-0.90625 0.1875 -1.1875 0.375q-0.4375 0.296875 -0.4375 0.765625q0 0.46875 0.34375 0.8125q0.34375 0.328125 0.875 0.328125q0.59375 0 1.140625 -0.390625q0.390625 -0.296875 0.515625 -0.734375q0.09375 -0.28125 0.09375 -1.0625l0 -0.4375zm11.8671875 3.984375l-2.203125 0l0 -4.234375q0 -1.34375 -0.140625 -1.734375q-0.140625 -0.40625 -0.453125 -0.625q-0.3125 -0.21875 -0.765625 -0.21875q-0.5625 0 -1.015625 0.3125q-0.453125 0.3125 -0.625 0.828125q-0.171875 0.515625 -0.171875 1.90625l0 3.765625l-2.1875 0l0 -8.296875l2.03125 0l0 1.21875q1.09375 -1.40625 2.734375 -1.40625q0.734375 0 1.328125 0.265625q0.609375 0.25 0.90625 0.65625q0.3125 0.40625 0.4375 0.921875q0.125 0.515625 0.125 1.484375l0 5.15625zm6.0234375 -8.296875l0 1.75l-1.5 0l0 3.34375q0 1.015625 0.046875 1.1875q0.046875 0.15625 0.1875 0.265625q0.15625 0.109375 0.375 0.109375q0.3125 0 0.890625 -0.203125l0.1875 1.703125q-0.765625 0.328125 -1.734375 0.328125q-0.59375 0 -1.078125 -0.203125q-0.46875 -0.203125 -0.703125 -0.515625q-0.21875 -0.3125 -0.296875 -0.859375q-0.078125 -0.375 -0.078125 -1.546875l0 -3.609375l-1.0 0l0 -1.75l1.0 0l0 -1.65625l2.203125 -1.28125l0 2.9375l1.5 0z" fill-rule="nonzero"/><path fill="#434343" d="m642.45667 288.59842l26.204773 -26.204712l0 13.102356l131.33856 0l0 26.204712l-131.33856 0l0 13.102386z" fill-rule="evenodd"/><path stroke="#000000" stroke-width="1.0" stroke-linejoin="round" stroke-linecap="butt" d="m642.45667 288.59842l26.204773 -26.204712l0 13.102356l131.33856 0l0 26.204712l-131.33856 0l0 13.102386z" fill-rule="evenodd"/><path fill="#efefef" d="m676.0569 294.45844l0 -11.453125l4.875 0q1.828125 0 2.65625 0.3125q0.84375 0.296875 1.34375 1.09375q0.5 0.78125 0.5 1.796875q0 1.296875 -0.765625 2.140625q-0.75 0.828125 -2.265625 1.046875q0.75 0.4375 1.234375 0.96875q0.5 0.515625 1.328125 1.859375l1.390625 2.234375l-2.765625 0l-1.671875 -2.5q-0.890625 -1.328125 -1.21875 -1.671875q-0.328125 -0.359375 -0.703125 -0.484375q-0.359375 -0.125 -1.15625 -0.125l-0.46875 0l0 4.78125l-2.3125 0zm2.3125 -6.609375l1.71875 0q1.65625 0 2.0625 -0.140625q0.421875 -0.140625 0.65625 -0.484375q0.234375 -0.34375 0.234375 -0.859375q0 -0.578125 -0.3125 -0.9375q-0.296875 -0.359375 -0.859375 -0.453125q-0.28125 -0.03125 -1.6875 -0.03125l-1.8125 0l0 2.90625zm8.7109375 2.34375q0 -1.09375 0.53125 -2.109375q0.546875 -1.03125 1.53125 -1.5625q1.0 -0.546875 2.21875 -0.546875q1.875 0 3.078125 1.21875q1.203125 1.21875 1.203125 3.09375q0 1.875 -1.21875 3.125q-1.203125 1.234375 -3.046875 1.234375q-1.140625 0 -2.1875 -0.515625q-1.03125 -0.515625 -1.578125 -1.515625q-0.53125 -1.0 -0.53125 -2.421875zm2.25 0.109375q0 1.234375 0.578125 1.890625q0.59375 0.65625 1.453125 0.65625q0.859375 0 1.4375 -0.65625q0.59375 -0.65625 0.59375 -1.90625q0 -1.21875 -0.59375 -1.875q-0.578125 -0.65625 -1.4375 -0.65625q-0.859375 0 -1.453125 0.65625q-0.578125 0.65625 -0.578125 1.890625zm11.8359375 -4.140625l0 1.75l-1.5 0l0 3.34375q0 1.015625 0.046875 1.1875q0.046875 0.15625 0.1875 0.265625q0.15625 0.109375 0.375 0.109375q0.3125 0 0.890625 -0.203125l0.1875 1.703125q-0.765625 0.328125 -1.734375 0.328125q-0.59375 0 -1.078125 -0.203125q-0.46875 -0.203125 -0.703125 -0.515625q-0.21875 -0.3125 -0.296875 -0.859375q-0.078125 -0.375 -0.078125 -1.546875l0 -3.609375l-1.0 0l0 -1.75l1.0 0l0 -1.65625l2.203125 -1.28125l0 2.9375l1.5 0zm3.171875 2.53125l-2.0 -0.359375q0.34375 -1.203125 1.15625 -1.78125q0.828125 -0.578125 2.4375 -0.578125q1.46875 0 2.1875 0.34375q0.71875 0.34375 1.015625 0.890625q0.296875 0.53125 0.296875 1.953125l-0.03125 2.5625q0 1.09375 0.109375 1.625q0.109375 0.515625 0.390625 1.109375l-2.171875 0q-0.078125 -0.21875 -0.203125 -0.65625q-0.0625 -0.1875 -0.078125 -0.25q-0.5625 0.546875 -1.203125 0.828125q-0.640625 0.265625 -1.375 0.265625q-1.28125 0 -2.015625 -0.6875q-0.734375 -0.703125 -0.734375 -1.765625q0 -0.703125 0.328125 -1.25q0.34375 -0.5625 0.9375 -0.84375q0.609375 -0.296875 1.75 -0.515625q1.546875 -0.296875 2.140625 -0.546875l0 -0.21875q0 -0.625 -0.3125 -0.890625q-0.3125 -0.28125 -1.1875 -0.28125q-0.578125 0 -0.90625 0.234375q-0.328125 0.234375 -0.53125 0.8125zm2.9375 1.78125q-0.421875 0.140625 -1.34375 0.34375q-0.90625 0.1875 -1.1875 0.375q-0.4375 0.296875 -0.4375 0.765625q0 0.46875 0.34375 0.8125q0.34375 0.328125 0.875 0.328125q0.59375 0 1.140625 -0.390625q0.390625 -0.296875 0.515625 -0.734375q0.09375 -0.28125 0.09375 -1.0625l0 -0.4375zm8.1171875 -4.3125l0 1.75l-1.5 0l0 3.34375q0 1.015625 0.046875 1.1875q0.046875 0.15625 0.1875 0.265625q0.15625 0.109375 0.375 0.109375q0.3125 0 0.890625 -0.203125l0.1875 1.703125q-0.765625 0.328125 -1.734375 0.328125q-0.59375 0 -1.078125 -0.203125q-0.46875 -0.203125 -0.703125 -0.515625q-0.21875 -0.3125 -0.296875 -0.859375q-0.078125 -0.375 -0.078125 -1.546875l0 -3.609375l-1.0 0l0 -1.75l1.0 0l0 -1.65625l2.203125 -1.28125l0 2.9375l1.5 0zm1.53125 -1.125l0 -2.03125l2.1875 0l0 2.03125l-2.1875 0zm0 9.421875l0 -8.296875l2.1875 0l0 8.296875l-2.1875 0zm11.9921875 0l-2.203125 0l0 -4.234375q0 -1.34375 -0.140625 -1.734375q-0.140625 -0.40625 -0.453125 -0.625q-0.3125 -0.21875 -0.765625 -0.21875q-0.5625 0 -1.015625 0.3125q-0.453125 0.3125 -0.625 0.828125q-0.171875 0.515625 -0.171875 1.90625l0 3.765625l-2.1875 0l0 -8.296875l2.03125 0l0 1.21875q1.09375 -1.40625 2.734375 -1.40625q0.734375 0 1.328125 0.265625q0.609375 0.25 0.90625 0.65625q0.3125 0.40625 0.4375 0.921875q0.125 0.515625 0.125 1.484375l0 5.15625zm2.0234375 0.546875l2.5 0.3125q0.0625 0.4375 0.296875 0.59375q0.3125 0.234375 0.984375 0.234375q0.859375 0 1.28125 -0.25q0.296875 -0.171875 0.4375 -0.5625q0.109375 -0.265625 0.109375 -1.015625l0 -1.203125q-0.984375 1.34375 -2.484375 1.34375q-1.671875 0 -2.65625 -1.421875q-0.765625 -1.109375 -0.765625 -2.78125q0 -2.078125 1.0 -3.171875q1.015625 -1.109375 2.5 -1.109375q1.546875 0 2.546875 1.34375l0 -1.15625l2.046875 0l0 7.4375q0 1.484375 -0.25 2.203125q-0.234375 0.734375 -0.671875 1.140625q-0.4375 0.421875 -1.171875 0.65625q-0.71875 0.234375 -1.84375 0.234375q-2.109375 0 -3.0 -0.734375q-0.875 -0.71875 -0.875 -1.828125q0 -0.109375 0.015625 -0.265625zm1.953125 -4.875q0 1.328125 0.515625 1.9375q0.515625 0.609375 1.265625 0.609375q0.796875 0 1.34375 -0.625q0.5625 -0.625 0.5625 -1.859375q0 -1.296875 -0.53125 -1.921875q-0.53125 -0.625 -1.34375 -0.625q-0.78125 0 -1.296875 0.625q-0.515625 0.609375 -0.515625 1.859375zm12.375 4.328125l0 -11.453125l2.1875 0l0 4.125q1.015625 -1.15625 2.40625 -1.15625q1.515625 0 2.5 1.09375q1.0 1.09375 1.0 3.15625q0 2.125 -1.015625 3.28125q-1.0 1.140625 -2.453125 1.140625q-0.703125 0 -1.40625 -0.359375q-0.6875 -0.359375 -1.1875 -1.046875l0 1.21875l-2.03125 0zm2.171875 -4.328125q0 1.28125 0.40625 1.90625q0.578125 0.875 1.515625 0.875q0.734375 0 1.234375 -0.625q0.515625 -0.625 0.515625 -1.953125q0 -1.421875 -0.515625 -2.046875q-0.515625 -0.640625 -1.3125 -0.640625q-0.796875 0 -1.328125 0.625q-0.515625 0.609375 -0.515625 1.859375zm9.3359375 -1.4375l-2.0 -0.359375q0.34375 -1.203125 1.15625 -1.78125q0.828125 -0.578125 2.4375 -0.578125q1.46875 0 2.1875 0.34375q0.71875 0.34375 1.015625 0.890625q0.296875 0.53125 0.296875 1.953125l-0.03125 2.5625q0 1.09375 0.109375 1.625q0.109375 0.515625 0.390625 1.109375l-2.171875 0q-0.078125 -0.21875 -0.203125 -0.65625q-0.0625 -0.1875 -0.078125 -0.25q-0.5625 0.546875 -1.203125 0.828125q-0.640625 0.265625 -1.375 0.265625q-1.28125 0 -2.015625 -0.6875q-0.734375 -0.703125 -0.734375 -1.765625q0 -0.703125 0.328125 -1.25q0.34375 -0.5625 0.9375 -0.84375q0.609375 -0.296875 1.75 -0.515625q1.546875 -0.296875 2.140625 -0.546875l0 -0.21875q0 -0.625 -0.3125 -0.890625q-0.3125 -0.28125 -1.1875 -0.28125q-0.578125 0 -0.90625 0.234375q-0.328125 0.234375 -0.53125 0.8125zm2.9375 1.78125q-0.421875 0.140625 -1.34375 0.34375q-0.90625 0.1875 -1.1875 0.375q-0.4375 0.296875 -0.4375 0.765625q0 0.46875 0.34375 0.8125q0.34375 0.328125 0.875 0.328125q0.59375 0 1.140625 -0.390625q0.390625 -0.296875 0.515625 -0.734375q0.09375 -0.28125 0.09375 -1.0625l0 -0.4375zm3.5390625 1.609375l2.203125 -0.328125q0.140625 0.640625 0.5625 0.96875q0.4375 0.328125 1.21875 0.328125q0.84375 0 1.28125 -0.3125q0.28125 -0.21875 0.28125 -0.578125q0 -0.25 -0.15625 -0.421875q-0.15625 -0.15625 -0.734375 -0.28125q-2.65625 -0.59375 -3.359375 -1.078125q-0.984375 -0.671875 -0.984375 -1.859375q0 -1.078125 0.84375 -1.8125q0.859375 -0.734375 2.640625 -0.734375q1.703125 0 2.53125 0.5625q0.828125 0.546875 1.140625 1.625l-2.0625 0.390625q-0.140625 -0.484375 -0.515625 -0.734375q-0.359375 -0.265625 -1.046875 -0.265625q-0.875 0 -1.25 0.234375q-0.25 0.171875 -0.25 0.453125q0 0.234375 0.21875 0.390625q0.296875 0.21875 2.046875 0.625q1.765625 0.390625 2.453125 0.96875q0.6875 0.59375 0.6875 1.640625q0 1.140625 -0.953125 1.96875q-0.953125 0.8125 -2.8125 0.8125q-1.703125 0 -2.6875 -0.6875q-0.984375 -0.6875 -1.296875 -1.875zm14.4765625 -0.265625l2.1875 0.359375q-0.421875 1.203125 -1.328125 1.84375q-0.90625 0.625 -2.28125 0.625q-2.15625 0 -3.203125 -1.421875q-0.8125 -1.125 -0.8125 -2.859375q0 -2.0625 1.078125 -3.21875q1.078125 -1.171875 2.71875 -1.171875q1.859375 0 2.921875 1.21875q1.078125 1.21875 1.03125 3.75l-5.5 0q0.015625 0.96875 0.515625 1.515625q0.515625 0.546875 1.28125 0.546875q0.515625 0 0.859375 -0.28125q0.359375 -0.28125 0.53125 -0.90625zm0.125 -2.21875q-0.015625 -0.953125 -0.484375 -1.453125q-0.46875 -0.5 -1.140625 -0.5q-0.71875 0 -1.1875 0.53125q-0.46875 0.515625 -0.46875 1.421875l3.28125 0z" fill-rule="nonzero"/><path fill="#434343" d="m105.603676 198.3202l98.83465 0l0 -13.102356l26.204727 26.204727l-26.204727 26.204727l0 -13.102371l-98.83465 0z" fill-rule="evenodd"/><path stroke="#000000" stroke-width="1.0" stroke-linejoin="round" stroke-linecap="butt" d="m105.603676 198.3202l98.83465 0l0 -13.102356l26.204727 26.204727l-26.204727 26.204727l0 -13.102371l-98.83465 0z" fill-rule="evenodd"/><path fill="#efefef" d="m138.29874 205.82945l4.578125 0q1.359375 0 2.03125 0.109375q0.671875 0.109375 1.1875 0.46875q0.53125 0.359375 0.875 0.96875q0.359375 0.59375 0.359375 1.328125q0 0.8125 -0.4375 1.484375q-0.421875 0.671875 -1.171875 1.0q1.046875 0.3125 1.609375 1.046875q0.5625 0.734375 0.5625 1.71875q0 0.78125 -0.359375 1.53125q-0.359375 0.734375 -1.0 1.171875q-0.625 0.4375 -1.546875 0.546875q-0.578125 0.0625 -2.78125 0.078125l-3.90625 0l0 -11.453125zm2.3125 1.90625l0 2.640625l1.515625 0q1.359375 0 1.6875 -0.03125q0.59375 -0.078125 0.921875 -0.40625q0.34375 -0.34375 0.34375 -0.90625q0 -0.53125 -0.296875 -0.859375q-0.28125 -0.328125 -0.859375 -0.40625q-0.34375 -0.03125 -1.984375 -0.03125l-1.328125 0zm0 4.546875l0 3.0625l2.140625 0q1.25 0 1.59375 -0.0625q0.515625 -0.09375 0.828125 -0.453125q0.328125 -0.375 0.328125 -0.984375q0 -0.515625 -0.25 -0.875q-0.25 -0.359375 -0.71875 -0.515625q-0.46875 -0.171875 -2.046875 -0.171875l-1.875 0zm9.2265625 5.0l0 -11.453125l2.1875 0l0 11.453125l-2.1875 0zm4.4453125 -9.421875l0 -2.03125l2.1875 0l0 2.03125l-2.1875 0zm0 9.421875l0 -8.296875l2.1875 0l0 8.296875l-2.1875 0zm11.9921875 0l-2.203125 0l0 -4.234375q0 -1.34375 -0.140625 -1.734375q-0.140625 -0.40625 -0.453125 -0.625q-0.3125 -0.21875 -0.765625 -0.21875q-0.5625 0 -1.015625 0.3125q-0.453125 0.3125 -0.625 0.828125q-0.171875 0.515625 -0.171875 1.90625l0 3.765625l-2.1875 0l0 -8.296875l2.03125 0l0 1.21875q1.09375 -1.40625 2.734375 -1.40625q0.734375 0 1.328125 0.265625q0.609375 0.25 0.90625 0.65625q0.3125 0.40625 0.4375 0.921875q0.125 0.515625 0.125 1.484375l0 5.15625zm9.8359375 0l-2.046875 0l0 -1.21875q-0.5 0.703125 -1.203125 1.0625q-0.6875 0.34375 -1.390625 0.34375q-1.421875 0 -2.453125 -1.15625q-1.015625 -1.15625 -1.015625 -3.21875q0 -2.109375 0.984375 -3.203125q1.0 -1.09375 2.515625 -1.09375q1.390625 0 2.40625 1.15625l0 -4.125l2.203125 0l0 11.453125zm-5.859375 -4.328125q0 1.328125 0.359375 1.921875q0.53125 0.859375 1.484375 0.859375q0.765625 0 1.296875 -0.640625q0.53125 -0.65625 0.53125 -1.9375q0 -1.421875 -0.515625 -2.046875q-0.515625 -0.640625 -1.328125 -0.640625q-0.78125 0 -1.3125 0.625q-0.515625 0.625 -0.515625 1.859375zm7.2421875 1.953125l2.203125 -0.328125q0.140625 0.640625 0.5625 0.96875q0.4375 0.328125 1.21875 0.328125q0.84375 0 1.28125 -0.3125q0.28125 -0.21875 0.28125 -0.578125q0 -0.25 -0.15625 -0.421875q-0.15625 -0.15625 -0.734375 -0.28125q-2.65625 -0.59375 -3.359375 -1.078125q-0.984375 -0.671875 -0.984375 -1.859375q0 -1.078125 0.84375 -1.8125q0.859375 -0.734375 2.640625 -0.734375q1.703125 0 2.53125 0.5625q0.828125 0.546875 1.140625 1.625l-2.0625 0.390625q-0.140625 -0.484375 -0.515625 -0.734375q-0.359375 -0.265625 -1.046875 -0.265625q-0.875 0 -1.25 0.234375q-0.25 0.171875 -0.25 0.453125q0 0.234375 0.21875 0.390625q0.296875 0.21875 2.046875 0.625q1.765625 0.390625 2.453125 0.96875q0.6875 0.59375 0.6875 1.640625q0 1.140625 -0.953125 1.96875q-0.953125 0.8125 -2.8125 0.8125q-1.703125 0 -2.6875 -0.6875q-0.984375 -0.6875 -1.296875 -1.875z" fill-rule="nonzero"/><path fill="#000000" d="m536.7428 293.5748l73.4173 0l0 45.543304l-73.4173 0z" fill-rule="evenodd"/><path fill="#000000" d="m610.1601 293.5748l15.181091 -15.181091l0 45.543304l-15.181091 15.181091z" fill-rule="evenodd"/><path fill="#333333" d="m536.7428 293.5748l15.181091 -15.181091l73.4173 0l-15.181091 15.181091z" fill-rule="evenodd"/><path fill="#000000" fill-opacity="0.0" d="m536.7428 293.5748l15.181091 -15.181091l73.4173 0l0 45.543304l-15.181091 15.181091l-73.4173 0zm0 0l73.4173 0l15.181091 -15.181091m-15.181091 15.181091l0 45.543304" fill-rule="evenodd"/><path stroke="#000000" stroke-width="1.0" stroke-linejoin="round" stroke-linecap="butt" d="m536.7428 293.5748l15.181091 -15.181091l73.4173 0l0 45.543304l-15.181091 15.181091l-73.4173 0zm0 0l73.4173 0l15.181091 -15.181091m-15.181091 15.181091l0 45.543304" fill-rule="evenodd"/><path fill="#000000" d="m190.47769 309.00525l73.41733 0l0 45.543304l-73.41733 0z" fill-rule="evenodd"/><path fill="#000000" d="m263.89502 309.00525l15.181091 -15.181091l0 45.543304l-15.181091 15.181091z" fill-rule="evenodd"/><path fill="#333333" d="m190.47769 309.00525l15.181107 -15.181091l73.41731 0l-15.181091 15.181091z" fill-rule="evenodd"/><path fill="#000000" fill-opacity="0.0" d="m190.47769 309.00525l15.181107 -15.181091l73.41731 0l0 45.543304l-15.181091 15.181091l-73.41733 0zm0 0l73.41733 0l15.181091 -15.181091m-15.181091 15.181091l0 45.543304" fill-rule="evenodd"/><path stroke="#000000" stroke-width="1.0" stroke-linejoin="round" stroke-linecap="butt" d="m190.47769 309.00525l15.181107 -15.181091l73.41731 0l0 45.543304l-15.181091 15.181091l-73.41733 0zm0 0l73.41733 0l15.181091 -15.181091m-15.181091 15.181091l0 45.543304" fill-rule="evenodd"/><path fill="#cfe2f3" d="m262.13876 337.88385l21.221344 -42.515747l0 0c2.7800598 -5.5696716 7.290222 -8.959106 10.07373 -7.570465c2.7835083 1.3886414 2.786316 7.0294495 0.0062561035 12.599121l-21.221344 42.515778l0 0c-2.7800598 5.5696716 -7.290222 8.959076 -10.07373 7.570465c-2.7835083 -1.3886414 -2.786316 -7.0294495 -0.0062561035 -12.599152z" fill-rule="evenodd"/><path stroke="#000000" stroke-width="1.0" stroke-linejoin="round" stroke-linecap="butt" d="m262.13876 337.88385l21.221344 -42.515747l0 0c2.7800598 -5.5696716 7.290222 -8.959106 10.07373 -7.570465c2.7835083 1.3886414 2.786316 7.0294495 0.0062561035 12.599121l-21.221344 42.515778l0 0c-2.7800598 5.5696716 -7.290222 8.959076 -10.07373 7.570465c-2.7835083 -1.3886414 -2.786316 -7.0294495 -0.0062561035 -12.599152z" fill-rule="evenodd"/><path fill="#000000" fill-opacity="0.0" d="m290.85303 297.4252l14.425201 -51.46457" fill-rule="evenodd"/><path stroke="#000000" stroke-width="3.0" stroke-linejoin="round" stroke-linecap="butt" d="m290.85303 297.4252l14.425201 -51.46457" fill-rule="evenodd"/><path fill="#000000" fill-opacity="0.0" d="m374.4462 202.27559l-0.2204895 -146.70866" fill-rule="evenodd"/><path stroke="#000000" stroke-width="3.0" stroke-linejoin="round" stroke-linecap="butt" d="m374.4462 202.27559l-0.2204895 -146.70866" fill-rule="evenodd"/><path fill="#000000" fill-opacity="0.0" d="m516.23883 303.60104l24.724426 -1.0393677" fill-rule="evenodd"/><path stroke="#000000" stroke-width="3.0" stroke-linejoin="round" stroke-linecap="butt" d="m516.23883 303.60104l24.724426 -1.0393677" fill-rule="evenodd"/><path fill="#d9d9d9" d="m370.3491 382.71915l0 0c0 4.7705383 37.248505 8.637817 83.19684 8.637817c45.948364 0 83.19687 -3.867279 83.19687 -8.637817l0 17.275604c0 4.770508 -37.248505 8.637787 -83.19687 8.637787c-45.948334 0 -83.19684 -3.867279 -83.19684 -8.637787z" fill-rule="evenodd"/><path fill="#e8e8e8" d="m370.3491 382.71915l0 0c0 -4.770508 37.248505 -8.637787 83.19684 -8.637787c45.948364 0 83.19687 3.867279 83.19687 8.637787l0 0c0 4.7705383 -37.248505 8.637817 -83.19687 8.637817c-45.948334 0 -83.19684 -3.867279 -83.19684 -8.637817z" fill-rule="evenodd"/><path fill="#000000" fill-opacity="0.0" d="m536.7428 382.71915l0 0c0 4.7705383 -37.248505 8.637817 -83.19687 8.637817c-45.948334 0 -83.19684 -3.867279 -83.19684 -8.637817l0 0c0 -4.770508 37.248505 -8.637787 83.19684 -8.637787c45.948364 0 83.19687 3.867279 83.19687 8.637787l0 17.275604c0 4.770508 -37.248505 8.637787 -83.19687 8.637787c-45.948334 0 -83.19684 -3.867279 -83.19684 -8.637787l0 -17.275604" fill-rule="evenodd"/><path stroke="#000000" stroke-width="1.0" stroke-linejoin="round" stroke-linecap="butt" d="m536.7428 382.71915l0 0c0 4.7705383 -37.248505 8.637817 -83.19687 8.637817c-45.948334 0 -83.19684 -3.867279 -83.19684 -8.637817l0 0c0 -4.770508 37.248505 -8.637787 83.19684 -8.637787c45.948364 0 83.19687 3.867279 83.19687 8.637787l0 17.275604c0 4.770508 -37.248505 8.637787 -83.19687 8.637787c-45.948334 0 -83.19684 -3.867279 -83.19684 -8.637787l0 -17.275604" fill-rule="evenodd"/><path fill="#434343" d="m557.2126 391.35696l26.204712 -26.204742l0 13.102386l114.99213 0l0 26.204712l-114.99213 0l0 13.102356z" fill-rule="evenodd"/><path stroke="#000000" stroke-width="1.0" stroke-linejoin="round" stroke-linecap="butt" d="m557.2126 391.35696l26.204712 -26.204742l0 13.102386l114.99213 0l0 26.204712l-114.99213 0l0 13.102356z" fill-rule="evenodd"/><path fill="#efefef" d="m626.41296 392.9982l2.234375 0.71875q-0.515625 1.875 -1.71875 2.796875q-1.1875 0.90625 -3.03125 0.90625q-2.28125 0 -3.75 -1.5625q-1.46875 -1.5625 -1.46875 -4.265625q0 -2.859375 1.46875 -4.4375q1.484375 -1.59375 3.890625 -1.59375q2.09375 0 3.40625 1.25q0.78125 0.734375 1.171875 2.109375l-2.28125 0.546875q-0.203125 -0.890625 -0.859375 -1.40625q-0.640625 -0.515625 -1.5625 -0.515625q-1.265625 0 -2.0625 0.921875q-0.796875 0.90625 -0.796875 2.953125q0 2.171875 0.78125 3.09375q0.78125 0.921875 2.03125 0.921875q0.921875 0 1.578125 -0.578125q0.671875 -0.59375 0.96875 -1.859375zm4.2265625 4.21875l0 -11.453125l3.703125 0q2.109375 0 2.75 0.171875q0.984375 0.25 1.640625 1.125q0.671875 0.859375 0.671875 2.21875q0 1.0625 -0.390625 1.78125q-0.375 0.71875 -0.96875 1.125q-0.578125 0.40625 -1.1875 0.546875q-0.828125 0.15625 -2.40625 0.15625l-1.5 0l0 4.328125l-2.3125 0zm2.3125 -9.515625l0 3.25l1.265625 0q1.359375 0 1.8125 -0.171875q0.46875 -0.1875 0.734375 -0.5625q0.265625 -0.390625 0.265625 -0.90625q0 -0.625 -0.375 -1.03125q-0.359375 -0.40625 -0.921875 -0.5q-0.421875 -0.078125 -1.671875 -0.078125l-1.109375 0zm7.1875 9.515625l3.921875 -5.984375l-3.546875 -5.46875l2.703125 0l2.296875 3.671875l2.25 -3.671875l2.671875 0l-3.5625 5.5625l3.921875 5.890625l-2.796875 0l-2.53125 -3.96875l-2.546875 3.96875l-2.78125 0z" fill-rule="nonzero"/><path fill="#000000" fill-opacity="0.0" d="m383.8779 399.31573c-11.14917 0.17147827 -48.713013 1.8866882 -66.89499 1.0288696c-18.181976 -0.8578491 -25.387146 -4.4606323 -42.19687 -6.175873c-16.809692 -1.71521 -39.279083 -3.772522 -58.661407 -4.1154785c-19.382324 -0.34295654 -44.4252 3.0870667 -57.632553 2.0577393c-13.207352 -1.0292969 -18.695526 -2.4015503 -21.611542 -8.233582c-2.9160156 -5.8320312 -1.5446167 -20.755035 4.1154785 -26.758545c5.6601105 -6.003479 21.2686 -7.547241 29.845154 -9.262451c8.576553 -1.7152405 18.01181 -0.85739136 21.614166 -1.0288696" fill-rule="evenodd"/><path stroke="#ff0000" stroke-width="4.0" stroke-linejoin="round" stroke-linecap="butt" d="m383.8779 399.31573c-11.14917 0.17147827 -48.713013 1.8866882 -66.89499 1.0288696c-18.181976 -0.8578491 -25.387146 -4.4606323 -42.19687 -6.175873c-16.809692 -1.71521 -39.279083 -3.772522 -58.661407 -4.1154785c-19.382324 -0.34295654 -44.4252 3.0870667 -57.632553 2.0577393c-13.207352 -1.0292969 -18.695526 -2.4015503 -21.611542 -8.233582c-2.9160156 -5.8320312 -1.5446167 -20.755035 4.1154785 -26.758545c5.6601105 -6.003479 21.2686 -7.547241 29.845154 -9.262451c8.576553 -1.7152405 18.01181 -0.85739136 21.614166 -1.0288696" fill-rule="evenodd"/><path fill="#000000" fill-opacity="0.0" d="m511.20624 396.25983c4.8410034 -3.4616394 29.69159 -15.678986 29.046265 -20.769958c-0.6453247 -5.0909424 -25.33368 -7.1279297 -32.91812 -9.775726c-7.584442 -2.6477966 -12.104065 -3.8704224 -12.58844 -6.111023c-0.48440552 -2.2406006 3.0656128 -5.906891 9.682068 -7.3325806c6.6164856 -1.4256897 20.818634 -1.2215881 30.016693 -1.2215881c9.19812 0 11.939453 0.40667725 25.171997 1.2215881c13.232483 0.8149109 40.82892 3.8714294 54.223145 3.6678467c13.394287 -0.20361328 21.947083 -1.02005 26.142395 -4.889435c4.1953125 -3.8693848 2.2573242 -13.846649 -0.970459 -18.326813c-3.2277222 -4.4801636 -15.330139 -7.1284485 -18.39618 -8.554169" fill-rule="evenodd"/><path stroke="#ff0000" stroke-width="4.0" stroke-linejoin="round" stroke-linecap="butt" d="m511.20624 396.25983c4.8410034 -3.4616394 29.69159 -15.678986 29.046265 -20.769958c-0.6453247 -5.0909424 -25.33368 -7.1279297 -32.91812 -9.775726c-7.584442 -2.6477966 -12.104065 -3.8704224 -12.58844 -6.111023c-0.48440552 -2.2406006 3.0656128 -5.906891 9.682068 -7.3325806c6.6164856 -1.4256897 20.818634 -1.2215881 30.016693 -1.2215881c9.19812 0 11.939453 0.40667725 25.171997 1.2215881c13.232483 0.8149109 40.82892 3.8714294 54.223145 3.6678467c13.394287 -0.20361328 21.947083 -1.02005 26.142395 -4.889435c4.1953125 -3.8693848 2.2573242 -13.846649 -0.970459 -18.326813c-3.2277222 -4.4801636 -15.330139 -7.1284485 -18.39618 -8.554169" fill-rule="evenodd"/></g></svg>